<?xml version="1.0" encoding="UTF-8" standalone="no"?>
<svg
   xmlns:dc="http://purl.org/dc/elements/1.1/"
   xmlns:cc="http://creativecommons.org/ns#"
   xmlns:rdf="http://www.w3.org/1999/02/22-rdf-syntax-ns#"
   xmlns:svg="http://www.w3.org/2000/svg"
   xmlns="http://www.w3.org/2000/svg"
   xmlns:sodipodi="http://sodipodi.sourceforge.net/DTD/sodipodi-0.dtd"
   xmlns:inkscape="http://www.inkscape.org/namespaces/inkscape"
   width="82"
   height="42"
   viewBox="0 0 41 21"
   version="1.1"
   id="svg16"
   sodipodi:docname="ud.svg"
   inkscape:version="1.0.2 (e86c870879, 2021-01-15, custom)">
  <metadata
     id="metadata22">
    <rdf:RDF>
      <cc:Work
         rdf:about="">
        <dc:format>image/svg+xml</dc:format>
        <dc:type
           rdf:resource="http://purl.org/dc/dcmitype/StillImage" />
        <dc:title></dc:title>
      </cc:Work>
    </rdf:RDF>
  </metadata>
  <defs
     id="defs20" />
  <sodipodi:namedview
     pagecolor="#ffffff"
     bordercolor="#666666"
     borderopacity="1"
     objecttolerance="10"
     gridtolerance="10"
     guidetolerance="10"
     inkscape:pageopacity="0"
     inkscape:pageshadow="2"
     inkscape:window-width="1600"
     inkscape:window-height="871"
     id="namedview18"
     showgrid="false"
     inkscape:pagecheckerboard="true"
     inkscape:zoom="6.4363636"
     inkscape:cx="26.113674"
     inkscape:cy="30.389841"
     inkscape:window-x="0"
     inkscape:window-y="0"
     inkscape:window-maximized="1"
     inkscape:current-layer="g14" />
  <g
     style="stroke:#ffffff;stroke-opacity:1"
     id="g14"
     transform="translate(-4.5,-4.5)">
    <path
       d="m 35,5 c 5.5,0 10,4.5 10,10 0,5.5 -4.5,10 -10,10 H 25 v -4 h 10 c 3.5,0 6,-2.5 6,-6 0,-3.5 -2.5,-6 -6,-6 H 25 V 5 Z"
       id="path10" />
    <path
       d="M 25,15 C 25,20.5 20.5,25 15,25 9.5,25 5,20.5 5,15 V 5 h 4 v 10 c 0,3.5 2.5,6 6,6 3.5,0 6,-2.5 6,-6 V 5 h 4 z"
       id="path4"
       style="stroke:#ffffff;stroke-opacity:1" />
  </g>
</svg>
