<?xml version="1.0" encoding="UTF-8" standalone="no"?>
<svg xmlns="http://www.w3.org/2000/svg" width="160" height="110" viewBox="0 0 80 55" version="1.1">
   <g style="stroke:#ffffff;stroke-opacity:1">
      <path d="m 55,5 h 20 v 4 h -8 v 12 h 8 v 4 H 55 v -4 h 8 V 9 h -8 z" />
      <path
         d="M 25,15 C 25,20.5 20.5,25 15,25 9.5,25 5,20.5 5,15 V 5 h 4 v 10 c 0,3.5 2.5,6 6,6 3.5,0 6,-2.5 6,-6 V 5 h 4 z" />
      <path
         d="M 65,50 C 59.5,50 55,45.5 55,40 55,34.5 59.5,30 65,30 h 10 v 4 H 65 c -3.5,0 -6,2.5 -6,6 0,3.5 2.5,6 6,6 h 10 v 4 z" />
      <path
         d="M 30,15 C 30,9.5 34.5,5 40,5 45.5,5 50,9.5 50,15 V 25 H 46 V 15 c 0,-3.5 -2.5,-6 -6,-6 -3.5,0 -6,2.5 -6,6 v 10 h -4 z" />
      <path
         d="m 15,30 c 5.5,0 10,4.5 10,10 0,5.5 -4.5,10 -10,10 H 5 v -4 h 10 c 3.5,0 6,-2.5 6,-6 0,-3.5 -2.5,-6 -6,-6 H 5 v -4 z" />
      <path
         d="M 40,30 A 10,10 0 0 0 30,40 10,10 0 0 0 40,50 10,10 0 0 0 50,40 10,10 0 0 0 40,30 a 10,10 0 0 0 0,0 z m 0,4 a 6,6 0 0 1 6,6 6,6 0 0 1 -6,6 6,6 0 0 1 -6,-6 6,6 0 0 1 6,-6 z" />
   </g>
</svg>
